<svg xmlns="http://www.w3.org/2000/svg" width="384pt" height="384pt" viewBox="0 0 384 384" version="1.1" class="iconadda">
<g id="animate_0" transform="rotate(0,192,192) translate(0,0) scale(1.0,1.0)">
<g id="animate_1" style="transform-origin: 192px 192.002px;"><path style="stroke: none; fill-rule: nonzero; fill-opacity: 1;" d="M 324.550781 24.101562 C 308.660156 24.101562 293.730469 30.285156 282.511719 41.515625 C 278.121094 45.910156 278.121094 53.03125 282.515625 57.425781 L 308.644531 83.550781 L 293.914062 98.277344 C 269.222656 76.898438 237.773438 63.132812 203.25 60.660156 L 203.25 34.550781 L 228.148438 34.550781 C 234.363281 34.550781 239.398438 29.515625 239.398438 23.300781 C 239.398438 17.085938 234.363281 12.050781 228.148438 12.050781 L 155.847656 12.050781 C 149.632812 12.050781 144.597656 17.085938 144.597656 23.300781 C 144.597656 29.515625 149.632812 34.550781 155.847656 34.550781 L 180.75 34.550781 L 180.75 60.660156 C 146.226562 63.136719 114.777344 76.898438 90.089844 98.277344 L 75.359375 83.550781 L 101.488281 57.425781 C 105.882812 53.035156 105.882812 45.910156 101.492188 41.515625 C 90.269531 30.285156 75.339844 24.101562 59.453125 24.101562 C 26.667969 24.101562 0 50.769531 0 83.550781 C 0 99.425781 6.183594 114.355469 17.410156 125.582031 C 21.410156 129.578125 28.523438 130.378906 33.320312 125.582031 L 59.449219 99.457031 L 74.179688 114.1875 C 50.496094 141.53125 36.148438 177.171875 36.148438 216.101562 C 36.148438 255.03125 50.496094 290.667969 74.179688 318.011719 L 39.445312 352.746094 C 35.050781 357.140625 35.050781 364.261719 39.445312 368.65625 C 43.839844 373.050781 50.960938 373.050781 55.355469 368.65625 L 90.089844 333.921875 C 117.433594 357.605469 153.074219 371.953125 192 371.953125 C 230.929688 371.953125 266.566406 357.605469 293.910156 333.921875 L 328.644531 368.65625 C 333.039062 373.050781 340.160156 373.050781 344.554688 368.65625 C 348.949219 364.261719 348.949219 357.140625 344.554688 352.746094 L 309.820312 318.011719 C 333.503906 290.667969 347.851562 255.027344 347.851562 216.101562 C 347.851562 177.171875 333.503906 141.53125 309.820312 114.1875 L 324.550781 99.457031 L 350.679688 125.582031 C 355.476562 130.378906 362.59375 129.578125 366.589844 125.582031 C 377.816406 114.355469 384 99.425781 384 83.550781 C 384 50.769531 357.332031 24.101562 324.550781 24.101562 Z M 268.105469 155.902344 L 199.957031 224.058594 L 199.957031 224.054688 C 197.847656 226.164062 194.984375 227.351562 192 227.351562 C 189.015625 227.351562 186.15625 226.164062 184.046875 224.054688 L 149.96875 189.976562 C 145.574219 185.582031 145.574219 178.460938 149.96875 174.066406 C 154.363281 169.671875 161.484375 169.671875 165.878906 174.066406 L 192 200.191406 L 252.195312 139.992188 C 256.589844 135.597656 263.710938 135.597656 268.105469 139.992188 C 272.5 144.386719 272.5 151.507812 268.105469 155.902344 Z M 268.105469 155.902344 " id="animate_2" data-original="#000001" fill="#e8c216" class=""></path>
</g></g>
</svg>