<svg xmlns="http://www.w3.org/2000/svg" width="384pt" height="384pt" viewBox="0 0 384 384" version="1.1" class="iconadda">
<g id="animate_0" transform="rotate(0,192,192) translate(0,0) scale(1.0,1.0)">
<g id="animate_1" style="transform-origin: 191.213px 156.55px;"><path style="stroke: none; fill-rule: nonzero; fill-opacity: 1;" d="M 370.304688 123.378906 L 259.066406 12.136719 C 242.886719 -4.042969 216.554688 -4.042969 200.371094 12.136719 L 91.332031 121.175781 L 307.734375 121.175781 C 341.535156 121.175781 369.277344 147.515625 371.566406 180.75 C 378.582031 173.101562 382.425781 163.222656 382.425781 152.726562 C 382.425781 141.617188 378.121094 131.195312 370.304688 123.378906 Z M 102.859375 310.851562 L 91.296875 299.292969 L 70.90625 299.292969 L 70.90625 313.097656 L 102.863281 313.097656 Z M 0 220.632812 L 349.234375 220.632812 L 349.234375 234.4375 L 0 234.4375 Z M 0 220.632812 " id="animate_2" data-original="#000000" fill="#edc618"></path>
</g><g id="animate_3" style="transform-origin: 174.617px 263.838px;"><path style="stroke: none; fill-rule: nonzero; fill-opacity: 1;" d="M 0 342.496094 C 0 365.382812 18.617188 384 41.503906 384 L 307.730469 384 C 330.613281 384 349.234375 365.382812 349.234375 342.496094 L 349.234375 256.9375 L 0 256.9375 Z M 235.121094 276.792969 L 289.578125 276.792969 C 295.792969 276.792969 300.828125 281.828125 300.828125 288.042969 C 300.828125 294.257812 295.792969 299.292969 289.578125 299.292969 L 235.121094 299.292969 C 228.90625 299.292969 223.871094 294.257812 223.871094 288.042969 C 223.871094 281.828125 228.90625 276.792969 235.121094 276.792969 Z M 235.121094 313.097656 L 289.578125 313.097656 C 295.792969 313.097656 300.828125 318.132812 300.828125 324.347656 C 300.828125 330.5625 295.792969 335.597656 289.578125 335.597656 L 235.121094 335.597656 C 228.90625 335.597656 223.871094 330.5625 223.871094 324.347656 C 223.871094 318.132812 228.90625 313.097656 235.121094 313.097656 Z M 48.40625 288.042969 C 48.40625 281.828125 53.441406 276.792969 59.65625 276.792969 L 95.960938 276.792969 C 98.941406 276.792969 101.804688 277.976562 103.914062 280.085938 L 122.066406 298.234375 L 122.066406 298.238281 C 124.175781 300.347656 125.359375 303.210938 125.363281 306.195312 L 125.363281 324.347656 C 125.363281 330.5625 120.324219 335.597656 114.113281 335.597656 L 59.65625 335.597656 C 53.441406 335.597656 48.40625 330.5625 48.40625 324.347656 Z M 307.730469 143.675781 L 41.503906 143.675781 C 18.617188 143.675781 0 162.296875 0 185.179688 L 0 198.132812 L 349.234375 198.132812 L 349.234375 185.179688 C 349.234375 162.296875 330.617188 143.675781 307.730469 143.675781 Z M 307.730469 143.675781 " id="animate_4" data-original="#000000" fill="#edc618"></path>
</g></g>
</svg>