<svg xmlns="http://www.w3.org/2000/svg" width="384pt" height="384pt" viewBox="0 0 384 384" version="1.1" class="iconadda">
<g id="animate_0" transform="rotate(0,192,192) translate(384,0) scale(-1,1)">
<g id="animate_1" style="transform-origin: 192px 275.82px;"><path style="stroke: none; fill-rule: nonzero; fill-opacity: 1;" d="M 162.058594 215.890625 L 221.941406 215.890625 L 221.941406 335.75 L 162.058594 335.75 Z M 162.058594 215.890625 " id="animate_2" data-original="#000001" fill="#f2c110"></path>
</g><g id="animate_3" style="transform-origin: 191.998px 212.18px;"><path style="stroke: none; fill-rule: nonzero; fill-opacity: 1;" d="M 192.007812 88.609375 L 55.453125 176.644531 L 55.453125 335.75 L 139.550781 335.75 L 139.550781 193.386719 L 244.445312 193.386719 L 244.445312 335.75 L 328.542969 335.75 L 328.542969 176.636719 Z M 192.007812 88.609375 " id="animate_4" data-original="#000001" fill="#f2c110"></path>
</g><g id="animate_5" style="transform-origin: 192.003px 87.2734px;"><path style="stroke: none; fill-rule: nonzero; fill-opacity: 1;" d="M 365.328125 109.960938 L 192.007812 0 L 18.671875 109.96875 C 0.96875 120.402344 -5.25 143.394531 4.828125 161.335938 C 7.878906 166.761719 12.105469 171.25 17.167969 174.546875 L 192.007812 61.832031 L 366.832031 174.539062 C 371.890625 171.246094 376.113281 166.761719 379.164062 161.34375 C 389.257812 143.394531 383.050781 120.402344 365.332031 109.960938 Z M 365.328125 109.960938 " id="animate_6" data-original="#000001" fill="#f2c110"></path>
</g></g>
</svg>