<svg xmlns="http://www.w3.org/2000/svg" width="384pt" height="384pt" viewBox="0 0 384 384" version="1.1" class="iconadda">
<g id="animate_0" transform="rotate(0,192,192) translate(51,0) scale(1.0,1.0)">
<g id="animate_1" style="transform-origin: 140.736px 135.076px;"><path style="stroke: none; fill-rule: nonzero; fill-opacity: 1;" d="M 140.734375 74.464844 C 107.3125 74.464844 80.125 101.65625 80.125 135.074219 C 80.125 168.496094 107.316406 195.6875 140.734375 195.6875 C 174.15625 195.6875 201.347656 168.496094 201.347656 135.074219 C 201.347656 101.65625 174.15625 74.464844 140.734375 74.464844 Z M 140.734375 74.464844 " id="animate_2" data-original="#000001" fill="#f0d613" class=""></path>
</g><g id="animate_3" style="transform-origin: 140.736px 192px;"><path style="stroke: none; fill-rule: nonzero; fill-opacity: 1;" d="M 140.734375 0 C 63.132812 0 0 63.132812 0 140.734375 C 0 176.382812 22.460938 226.75 66.765625 290.4375 C 99.148438 336.992188 130.996094 373.019531 132.339844 374.53125 L 140.734375 384 L 149.132812 374.53125 C 150.472656 373.019531 182.320312 336.992188 214.707031 290.4375 C 259.007812 226.75 281.472656 176.382812 281.472656 140.734375 C 281.46875 63.132812 218.335938 0 140.734375 0 Z M 140.734375 218.136719 C 94.933594 218.136719 57.675781 180.875 57.675781 135.074219 C 57.675781 89.273438 94.9375 52.015625 140.734375 52.015625 C 186.535156 52.015625 223.796875 89.277344 223.796875 135.074219 C 223.796875 180.875 186.535156 218.136719 140.734375 218.136719 Z M 140.734375 218.136719 " id="animate_4" data-original="#000001" fill="#f0d613" class=""></path>
</g></g>
</svg>